<?xml version="1.0" encoding="UTF-8" standalone="no"?>
<!DOCTYPE svg PUBLIC "-//W3C//DTD SVG 1.1//EN" "http://www.w3.org/Graphics/SVG/1.1/DTD/svg11.dtd">
<svg width="100%" height="100%" viewBox="0 0 46 46" version="1.1" xmlns="http://www.w3.org/2000/svg" xmlns:xlink="http://www.w3.org/1999/xlink" xml:space="preserve" xmlns:serif="http://www.serif.com/" style="fill-rule:evenodd;clip-rule:evenodd;stroke-linejoin:round;stroke-miterlimit:2;">
  <g>
    <path d="M22.991,40.597l7.16,-22.034l-14.318,-0l7.159,22.034l-0.001,-0Z" style="fill:#e24329;"/>
    <path d="M22.991,40.597l-7.159,-22.034l-10.034,-0l17.194,22.034l-0.001,-0Z" style="fill:#fc6d26;"/>
    <path d="M5.798,18.563l-2.175,6.696c-0.199,0.61 0.019,1.28 0.538,1.657l18.83,13.681l-17.193,-22.034l0,-0Z" style="fill:#fca326;"/>
    <path d="M5.798,18.563l10.034,-0l-4.312,-13.271c-0.222,-0.683 -1.188,-0.683 -1.41,0l-4.312,13.271Z" style="fill:#e24329;"/>
    <path d="M22.991,40.597l7.16,-22.034l10.033,-0l-17.192,22.034l-0.001,-0Z" style="fill:#fc6d26;"/>
    <path d="M40.184,18.563l2.176,6.696c0.198,0.61 -0.019,1.28 -0.539,1.657l-18.83,13.681l17.193,-22.034l0,-0Z" style="fill:#fca326;"/>
    <path d="M40.184,18.563l-10.034,-0l4.313,-13.271c0.222,-0.683 1.188,-0.683 1.409,0l4.312,13.271Z" style="fill:#e24329;"/>
  </g>
</svg>
